<?xml version="1.0" encoding="UTF-8"?>
<svg version="1.1" xmlns="http://www.w3.org/2000/svg" width="300" height="300">
<path d="M0 0 C99 0 198 0 300 0 C300 99 300 198 300 300 C201 300 102 300 0 300 C0 201 0 102 0 0 Z " fill="#5AA8E4" transform="translate(0,0)"/>
<path d="M0 0 C0.495 0.99 0.495 0.99 1 2 C0.525625 3.134375 0.05125 4.26875 -0.4375 5.4375 C-5.04915538 17.60534189 0.01057136 28.76750693 5 40 C10.80253223 52.47317768 17.42568288 64.22781494 26 75 C26.43280273 75.5455957 26.86560547 76.09119141 27.31152344 76.65332031 C47.71372418 102.09273351 80.43763693 130.48279321 113.93359375 135.43359375 C124.95594322 135.4507893 132.28404022 131.65603 140 124 C140.77730469 123.24847656 141.55460938 122.49695313 142.35546875 121.72265625 C146.15707291 117.99547175 149.82014031 114.28589784 153 110 C153.49880705 115.23747399 152.13727785 117.99222331 149 122 C146.74036792 124.59811661 144.36061466 127.05465493 141.9375 129.5 C141.33228516 130.13808594 140.72707031 130.77617187 140.10351562 131.43359375 C136.68179297 134.89423983 133.57820619 137.30575657 129.15136719 139.34423828 C120.90339298 143.75846283 114.84669434 150.533604 108.36328125 157.1484375 C106.99004941 158.53101268 105.61569615 159.91247484 104.24028015 161.2928772 C100.65023692 164.90187016 97.0754755 168.52562814 93.50384521 172.15283203 C89.84577962 175.86235079 86.17324325 179.55748354 82.50195312 183.25390625 C75.32052031 190.4887142 68.15517318 197.73922689 61 205 C80.87962916 205.04669753 100.75924721 205.08197782 120.63891983 205.10362434 C129.86916181 205.11394184 139.09936973 205.12801122 148.32958984 205.15087891 C156.37359475 205.17079829 164.417575 205.18371299 172.46160388 205.18817699 C176.7218015 205.19078683 180.98192855 205.19693093 185.24210358 205.21146011 C189.25081151 205.22502109 193.25941973 205.22922565 197.26814842 205.22621536 C198.74035115 205.22676619 200.21255716 205.2307525 201.68474007 205.23841095 C203.69330567 205.24834838 205.70192461 205.24478037 207.71051025 205.24050903 C208.83509769 205.24235262 209.95968513 205.24419621 211.11835098 205.24609566 C213.94967637 205.00429769 215.60066554 204.47069387 218 203 C218 202.34 218 201.68 218 201 C218.66 201 219.32 201 220 201 C220.33 199.02 220.66 197.04 221 195 C221.33 195 221.66 195 222 195 C222 200.28 222 205.56 222 211 C123 211 24 211 -78 211 C-78 78 -78 78 -39 30.6875 C-13.53683036 9.44552176 -13.53683036 9.44552176 0 0 Z " fill="#3E80B2" transform="translate(78,89)"/>
<path d="M0 0 C4.8240491 3.7651115 8.39794704 8.78932101 12.08203125 13.625 C12.60474609 14.30369141 13.12746094 14.98238281 13.66601562 15.68164062 C16.33751569 19.15617147 18.99167787 22.6438953 21.61328125 26.15625 C22.04189453 26.72923828 22.47050781 27.30222656 22.91210938 27.89257812 C25.98656059 32.44522959 26.62526537 36.16104819 26.08203125 41.625 C25.40940104 45.06740561 24.51465279 48.43237707 23.58203125 51.8125 C23.10775739 53.55449506 22.63882507 55.29795502 22.17578125 57.04296875 C21.96630859 57.80375732 21.75683594 58.5645459 21.54101562 59.34838867 C21.00623911 62.00093708 20.69720173 63.92682026 21.08203125 66.625 C23.84580064 70.37825867 27.17053389 73.60016561 30.46923828 76.88378906 C32.07419171 78.49214384 33.63818812 80.13405173 35.203125 81.78125 C36.22296713 82.81216953 37.24503493 83.84089302 38.26953125 84.8671875 C39.19121094 85.8041748 40.11289063 86.74116211 41.0625 87.70654297 C45.31894486 90.41087218 47.21963419 89.69857573 52.08203125 88.625 C52.82453125 88.46636475 53.56703125 88.30772949 54.33203125 88.14428711 C54.90953125 87.9819458 55.48703125 87.81960449 56.08203125 87.65234375 C56.74203125 87.47509766 57.40203125 87.29785156 58.08203125 87.11523438 C59.41637247 86.74646624 60.74971412 86.37406216 62.08203125 85.99804688 C69.44110818 84.03610547 75.26091103 83.55120704 82.08642578 87.34130859 C85.61880849 89.61354596 88.81735087 92.22682071 92.01953125 94.9375 C93.41841834 96.10388777 94.81815206 97.26926093 96.21875 98.43359375 C96.88310059 98.98772949 97.54745117 99.54186523 98.23193359 100.11279297 C100.53633995 101.99633651 102.92630552 103.74856783 105.33203125 105.5 C109.79906765 108.99334204 112.60403057 112.18450676 113.41796875 118.04296875 C113.71910667 125.69882119 111.75289562 131.04418883 106.60546875 136.66796875 C105.23321946 138.0599721 103.85009318 139.44132536 102.45703125 140.8125 C101.78285156 141.51052734 101.10867187 142.20855469 100.4140625 142.92773438 C94.07680853 149.24695062 86.50705371 153.60198968 77.39453125 154.0625 C56.84897087 153.71427016 33.6467509 138.01443892 18.08203125 125.625 C17.54465332 125.19896484 17.00727539 124.77292969 16.45361328 124.33398438 C-9.46199751 103.61377438 -38.82921972 70.0868478 -43.2890625 35.76953125 C-43.67263188 27.34262831 -41.20408676 21.08362057 -35.79296875 14.6875 C-34.51431382 13.32104044 -33.22128371 11.96795952 -31.91796875 10.625 C-31.11617187 9.76132813 -30.314375 8.89765625 -29.48828125 8.0078125 C-21.25673849 -0.62404845 -11.68284738 -6.63641034 0 0 Z " fill="#F1F1F1" transform="translate(117.91796875,71.375)"/>
<path d="M0 0 C99 0 198 0 300 0 C300 5.28 300 10.56 300 16 C299.34 15.01 298.68 14.02 298 13 C295.57505598 9.68590984 293.82898979 7.52243467 290 6 C287.65835228 5.70054926 287.65835228 5.70054926 285.11767673 5.74273109 C284.13047848 5.7362822 283.14328023 5.72983331 282.12616688 5.723189 C280.5028887 5.7278348 280.5028887 5.7278348 278.84681702 5.73257446 C277.69536538 5.72804335 276.54391374 5.72351224 275.35756963 5.71884382 C272.16097315 5.70836285 268.96451789 5.7068758 265.76790965 5.70923257 C262.32066457 5.7096404 258.87345317 5.69860493 255.42622375 5.68911743 C248.6726123 5.67249982 241.91903576 5.66700757 235.16540558 5.66589268 C229.67688456 5.66494267 224.18837508 5.66083477 218.69985771 5.65449142 C203.14362976 5.63687784 187.58742941 5.62765287 172.03119142 5.62915237 C171.19243389 5.62923228 170.35367637 5.6293122 169.48950195 5.62939453 C168.22983224 5.62951717 168.22983224 5.62951717 166.94471466 5.62964229 C153.32979456 5.63045549 139.71498501 5.61130978 126.10009689 5.5831178 C112.12507485 5.55440806 98.15010678 5.54057641 84.17505449 5.54230535 C76.327202 5.54296986 68.47946544 5.5374509 60.63163948 5.51594925 C53.95089915 5.49776264 47.27032731 5.49336933 40.58957297 5.5069681 C37.18028416 5.51351031 33.77131884 5.51357039 30.36206055 5.4962616 C26.66780378 5.48090897 22.9744039 5.49005216 19.28016663 5.50552368 C18.20021189 5.49523656 17.12025716 5.48494943 16.00757653 5.47435057 C10.1547367 5.52319221 10.1547367 5.52319221 4.87702084 7.85902977 C2.86888032 10.14955792 1.88672204 12.09800059 1 15 C0.67 15 0.34 15 0 15 C0 10.05 0 5.1 0 0 Z " fill="#97C7EC" transform="translate(0,0)"/>
<path d="M0 0 C0.33 0 0.66 0 1 0 C1 5.28 1 10.56 1 16 C-98 16 -197 16 -299 16 C-299 8 -299 8 -297 5 C-296.21853607 5.81139938 -295.43707214 6.62279877 -294.63192749 7.45878601 C-290.37193151 10.97592059 -286.22014099 10.70802765 -280.88916016 10.65942383 C-279.87113689 10.6698962 -278.85311363 10.68036858 -277.80424118 10.69115829 C-274.38221582 10.72017674 -270.96119149 10.71350998 -267.5390625 10.70703125 C-265.06953743 10.7204111 -262.60002315 10.73592564 -260.13052368 10.75340271 C-254.08074474 10.79028794 -248.03131731 10.80377884 -241.98145974 10.80647987 C-234.88719718 10.81055583 -227.79311042 10.84037202 -220.69892025 10.87074542 C-206.90832738 10.92864223 -193.11779435 10.95567135 -179.32709789 10.97211719 C-166.57767667 10.98780263 -153.82843573 11.02454408 -141.07910156 11.07373047 C-122.69564265 11.14441075 -104.31220987 11.19516384 -85.9286536 11.23232812 C-79.9487731 11.24493738 -73.96893097 11.26382494 -67.98907471 11.28482056 C-60.66873962 11.3101792 -53.34848015 11.32422136 -46.02809966 11.32423991 C-42.26890354 11.32448268 -38.50987774 11.32955086 -34.75072098 11.34753227 C-30.65825214 11.36690395 -26.56614238 11.36287118 -22.47363281 11.35644531 C-20.67220794 11.37027362 -20.67220794 11.37027362 -18.83439064 11.38438129 C-17.73527037 11.37880805 -16.63615009 11.37323481 -15.50372314 11.36749268 C-14.08060759 11.36969252 -14.08060759 11.36969252 -12.62874222 11.3719368 C-9.50242334 10.92959862 -7.62696499 9.70104391 -5 8 C-4.34 8 -3.68 8 -3 8 C-3 7.34 -3 6.68 -3 6 C-2.34 6 -1.68 6 -1 6 C-0.67 4.02 -0.34 2.04 0 0 Z " fill="#41759D" transform="translate(299,284)"/>
<path d="M0 0 C3.10666329 1.55333165 3.38240011 4.62286353 4.4375 7.75 C10.15248579 23.71317733 18.4428957 38.73677688 29 52 C29.43280273 52.5455957 29.86560547 53.09119141 30.31152344 53.65332031 C50.71372418 79.09273351 83.43763693 107.48279321 116.93359375 112.43359375 C127.95594322 112.4507893 135.28404022 108.65603 143 101 C143.77730469 100.24847656 144.55460938 99.49695313 145.35546875 98.72265625 C149.15707291 94.99547175 152.82014031 91.28589784 156 87 C156.49836039 92.23278414 155.15289018 95.00449733 152 99 C149.65399358 101.63687451 147.18888932 104.13600607 144.6875 106.625 C143.7294043 107.60726562 143.7294043 107.60726562 142.75195312 108.609375 C137.59673992 113.76981132 132.51295976 118.10293018 125 119 C124.25363281 119.1134375 123.50726563 119.226875 122.73828125 119.34375 C101.78243236 120.69356313 76.74008583 103.51975587 61 91 C60.45972168 90.57251465 59.91944336 90.1450293 59.36279297 89.70458984 C33.37789769 68.92437285 7.66159231 38.20023336 0 5 C-0.125 2.0625 -0.125 2.0625 0 0 Z " fill="#305672" transform="translate(75,112)"/>
<path d="M0 0 C0.70576172 0.52400391 0.70576172 0.52400391 1.42578125 1.05859375 C2.35970703 1.74115234 2.35970703 1.74115234 3.3125 2.4375 C3.92738281 2.88996094 4.54226562 3.34242188 5.17578125 3.80859375 C8.469152 5.95951041 11.28179847 6.13136669 15.10624695 6.15821838 C16.69008682 6.17290161 16.69008682 6.17290161 18.30592346 6.18788147 C19.46397995 6.19363693 20.62203644 6.1993924 21.81518555 6.20532227 C23.03481995 6.21522186 24.25445435 6.22512146 25.51104736 6.23532104 C28.85579915 6.26151521 32.20052699 6.28337461 35.54531837 6.30332303 C39.04072117 6.3251893 42.53608057 6.35257485 46.03144836 6.37937927 C52.650569 6.42929749 59.26971374 6.47423955 65.8888815 6.51740164 C73.4245074 6.56678145 80.96008975 6.62169682 88.49567354 6.67708123 C103.99707546 6.7908879 119.49851742 6.89772981 135 7 C133.83812237 8.96993637 133.83812237 8.96993637 132 11 C129.55374622 11.49219131 129.55374622 11.49219131 126.59004211 11.48101807 C124.90523239 11.48926605 124.90523239 11.48926605 123.18638611 11.49768066 C121.95352371 11.48329956 120.72066132 11.46891846 119.45043945 11.45410156 C118.15277649 11.45468567 116.85511353 11.45526978 115.51812744 11.45587158 C111.95828034 11.45702062 108.39897089 11.43348148 104.8392489 11.40557575 C101.11968213 11.38059321 97.40010342 11.3782226 93.6804657 11.37347412 C86.63621066 11.36103502 79.59220354 11.32820098 72.54805773 11.28807616 C64.52882874 11.24338734 56.50958798 11.22137872 48.49026549 11.20129442 C31.99336513 11.15946899 15.49671419 11.08909904 -1 11 C-1.125 3.375 -1.125 3.375 0 0 Z " fill="#346180" transform="translate(1,289)"/>
<path d="M0 0 C0.33 0 0.66 0 1 0 C1.49836039 5.23278414 0.15289018 8.00449733 -3 12 C-5.34600642 14.63687451 -7.81111068 17.13600607 -10.3125 19.625 C-11.2705957 20.60726562 -11.2705957 20.60726562 -12.24804688 21.609375 C-16.20350908 25.56884477 -19.91451797 28.61203452 -25 31 C-25.66 30.67 -26.32 30.34 -27 30 C-26.4946875 29.51789063 -25.989375 29.03578125 -25.46875 28.5390625 C-24.49421875 27.59160156 -24.49421875 27.59160156 -23.5 26.625 C-22.8503125 25.99851563 -22.200625 25.37203125 -21.53125 24.7265625 C-19.77882569 23.13524093 -19.77882569 23.13524093 -20 21 C-18.56640625 19.58984375 -18.56640625 19.58984375 -16.5625 17.9375 C-13.32930309 15.1818037 -10.21913391 12.3519651 -7.1875 9.375 C-6.45917969 8.66085938 -5.73085937 7.94671875 -4.98046875 7.2109375 C-2.95409247 4.94875017 -1.52742279 2.61450748 0 0 Z " fill="#38698E" transform="translate(230,199)"/>
<path d="M0 0 C0.33 0 0.66 0 1 0 C1 1.98 1 3.96 1 6 C0.12359863 6.38744385 0.12359863 6.38744385 -0.77050781 6.78271484 C-3.17716622 8.09673136 -4.75319337 9.52480015 -6.671875 11.4765625 C-7.33574219 12.146875 -7.99960938 12.8171875 -8.68359375 13.5078125 C-9.36550781 14.20648438 -10.04742187 14.90515625 -10.75 15.625 C-11.44738281 16.33140625 -12.14476562 17.0378125 -12.86328125 17.765625 C-14.58012488 19.50598703 -16.29211832 21.25084981 -18 23 C-18.66 22.34 -19.32 21.68 -20 21 C-19.52691406 20.59910156 -19.05382812 20.19820312 -18.56640625 19.78515625 C-8.13649067 10.88864505 -8.13649067 10.88864505 0 0 Z M-25 28 C-25 28.99 -25 29.98 -25 31 C-25.66 30.67 -26.32 30.34 -27 30 C-26.34 29.34 -25.68 28.68 -25 28 Z " fill="#4D7796" transform="translate(230,199)"/>
<path d="M0 0 C0.33 0 0.66 0 1 0 C1 2.97 1 5.94 1 9 C-2.3 9 -5.6 9 -9 9 C-7.68 8.01 -6.36 7.02 -5 6 C-2.10244318 3.29719642 -2.10244318 3.29719642 0 0 Z " fill="#000101" transform="translate(299,291)"/>
<path d="M0 0 C2.97 0 5.94 0 9 0 C9 2.97 9 5.94 9 9 C8.443125 8.2575 7.88625 7.515 7.3125 6.75 C5.06972822 4.08292005 2.77925025 2.08443768 0 0 Z " fill="#000000" transform="translate(291,0)"/>
<path d="M0 0 C2.97 0 5.94 0 9 0 C8.2575 0.556875 7.515 1.11375 6.75 1.6875 C4.08292005 3.93027178 2.08443768 6.22074975 0 9 C0 6.03 0 3.06 0 0 Z " fill="#000000" transform="translate(0,0)"/>
<path d="M0 0 C0.47050781 0.40992188 0.94101563 0.81984375 1.42578125 1.2421875 C2.04839844 1.78101563 2.67101562 2.31984375 3.3125 2.875 C4.23482422 3.67550781 4.23482422 3.67550781 5.17578125 4.4921875 C7.13498212 6.1640447 7.13498212 6.1640447 10 8 C6.7 8 3.4 8 0 8 C0 5.36 0 2.72 0 0 Z " fill="#000000" transform="translate(0,292)"/>
<path d="M0 0 C2.92602095 1.46301048 3.09705209 3.41022764 4.1875 6.4375 C4.55230469 7.42621094 4.91710937 8.41492188 5.29296875 9.43359375 C6 12 6 12 5 14 C4.34 14 3.68 14 3 14 C-0.44419134 4.58997722 -0.44419134 4.58997722 0 0 Z " fill="#406683" transform="translate(75,112)"/>
<path d="M0 0 C3.48331435 3.01887244 4.79157144 5.56909529 6 10 C5.01 10 4.02 10 3 10 C0 3.375 0 3.375 0 0 Z " fill="#365C79" transform="translate(79,125)"/>
<path d="M0 0 C0.66 0.33 1.32 0.66 2 1 C-0.31 3.31 -2.62 5.62 -5 8 C-5.33 7.34 -5.66 6.68 -6 6 C-2.25 1.125 -2.25 1.125 0 0 Z " fill="#8DC0E5" transform="translate(7,1)"/>
</svg>
